<svg width="1000" height="133" viewBox="0 0 1000 133" fill="none" xmlns="http://www.w3.org/2000/svg">
<rect width="1000" height="200" fill="white"/>
<rect width="200" height="200" fill="#FFFBD5"/>
<rect width="67" height="67" fill="#A41C31"/>
<rect x="133" width="67" height="67" fill="#A41C31"/>
<rect x="67" y="67" width="66" height="66" fill="#A41C31"/>
<rect width="200" height="200" transform="translate(200)" fill="#A41C31"/>
<rect x="200" width="67" height="67" fill="#FFFBD5"/>
<rect x="333" width="67" height="67" fill="#FFFBD5"/>
<rect x="267" y="67" width="66" height="66" fill="#FFFBD5"/>
<rect width="200" height="200" transform="translate(400)" fill="#FFFBD5"/>
<rect x="400" width="67" height="67" fill="#A41C31"/>
<rect x="533" width="67" height="67" fill="#A41C31"/>
<rect x="467" y="67" width="66" height="66" fill="#A41C31"/>
<rect width="200" height="200" transform="translate(600)" fill="#A41C31"/>
<rect x="600" width="67" height="67" fill="#FFFBD5"/>
<rect x="733" width="67" height="67" fill="#FFFBD5"/>
<rect x="667" y="67" width="66" height="66" fill="#FFFBD5"/>
<rect width="200" height="200" transform="translate(800)" fill="#FFFBD5"/>
<rect x="800" width="67" height="67" fill="#A41C31"/>
<rect x="933" width="67" height="67" fill="#A41C31"/>
<rect x="867" y="67" width="66" height="66" fill="#A41C31"/>
</svg>
